<svg width="80" height="80" viewBox="0 0 80 80" fill="none" xmlns="http://www.w3.org/2000/svg">
<circle cx="40" cy="40" r="40" fill="white"/>
<path fill-rule="evenodd" clip-rule="evenodd" d="M50.7143 28.5179C47.7679 25.5714 43.8393 24 39.7143 24C31.0714 24 24 31.0714 24 39.7143C24 42.4643 24.7857 45.2143 26.1607 47.5714L24 55.4286L32.25 53.2679C34.6072 54.4464 37.1607 55.2321 39.7143 55.2321C48.3571 55.2321 55.4286 48.1607 55.4286 39.5179C55.4286 35.3929 53.6607 31.4643 50.7143 28.5179ZM39.7143 52.6786C37.3571 52.6786 35 52.0893 33.0357 50.9107L32.6428 50.7143L27.7321 52.0893L29.1072 47.375L28.7143 46.7857C27.3393 44.625 26.75 42.2679 26.75 39.9107C26.75 32.8393 32.6429 26.9464 39.7143 26.9464C43.25 26.9464 46.3929 28.3214 48.9465 30.6786C51.5 33.2321 52.6786 36.375 52.6786 39.9107C52.6786 46.7857 46.9821 52.6786 39.7143 52.6786ZM46.7857 42.8571C46.3929 42.6607 44.4286 41.6786 44.0357 41.6786C43.6429 41.4821 43.4464 41.4821 43.25 41.875C43.0535 42.2679 42.2679 43.0536 42.0715 43.4464C41.875 43.6429 41.6785 43.6429 41.2857 43.6429C40.8928 43.4464 39.7143 43.0536 38.1429 41.6786C36.9643 40.6964 36.1786 39.3214 35.9822 38.9286C35.7857 38.5357 35.9822 38.3393 36.1786 38.1429C36.375 37.9464 36.5714 37.75 36.7679 37.5536C36.9643 37.3571 36.9643 37.1607 37.1607 36.9643C37.3572 36.7679 37.1607 36.5714 37.1607 36.375C37.1607 36.1786 36.375 34.2143 35.9822 33.4286C35.7857 32.8393 35.3929 32.8393 35.1965 32.8393C35 32.8393 34.8035 32.8393 34.4107 32.8393C34.2143 32.8393 33.8214 32.8393 33.4285 33.2321C33.0357 33.625 32.0536 34.6071 32.0536 36.5714C32.0536 38.5357 33.4286 40.3036 33.625 40.6964C33.8214 40.8929 36.375 45.0179 40.3035 46.5893C43.6428 47.9643 44.2322 47.5714 45.0179 47.5714C45.8036 47.5714 47.375 46.5893 47.5714 45.8036C47.9643 44.8214 47.9643 44.0357 47.7679 44.0357C47.5714 43.0536 47.1786 43.0536 46.7857 42.8571Z" fill="#6E86C0"/>
</svg>
