<svg width="80" height="80" viewBox="0 0 80 80" fill="none" xmlns="http://www.w3.org/2000/svg">
<circle cx="40" cy="40" r="40" fill="white"/>
<path d="M27.4974 33.4199C27.205 34.6107 26.9914 36.1486 26.6943 38.2879C26.0158 43.173 25.6765 45.6156 26.4225 47.5127C27.0773 49.1781 28.2864 50.5668 29.8459 51.4445C31.6223 52.4443 34.0884 52.4443 39.0204 52.4443H41.5469C46.4789 52.4443 48.945 52.4443 50.7214 51.4445C52.2809 50.5668 53.49 49.1781 54.1448 47.5127C54.8908 45.6156 54.5515 43.173 53.873 38.2879C53.5503 35.9645 53.3262 34.3505 52.9926 33.1201L51.8563 34.2563C49.3172 36.7954 47.3274 38.7852 45.5661 40.1291C43.7634 41.5045 42.0635 42.3127 40.0951 42.3127C38.1266 42.3127 36.4268 41.5045 34.624 40.1291C32.8627 38.7852 30.8729 36.7954 28.3338 34.2563L27.4974 33.4199Z" fill="#6E86C0"/>
<path d="M28.45 31.0727L29.9206 32.5432C32.5365 35.1592 34.4172 37.0364 36.0393 38.274C37.6346 39.4911 38.8419 39.9793 40.0951 39.9793C41.3482 39.9793 42.5556 39.4911 44.1508 38.274C45.7729 37.0364 47.6536 35.1592 50.2695 32.5432L51.9646 30.8482C51.1744 29.7286 50.101 28.8358 48.8514 28.2629C47.308 27.5554 45.3877 27.5554 41.5469 27.5554H39.0204C35.1796 27.5554 33.2593 27.5554 31.7159 28.2629C30.3839 28.8736 29.252 29.8478 28.45 31.0727Z" fill="#6E86C0"/>
</svg>
