<svg width="73" height="73" viewBox="0 0 73 73" fill="none" xmlns="http://www.w3.org/2000/svg">
<circle cx="36.5" cy="36.5" r="36.5" fill="#FF62B4"/>
<path d="M25.091 30.4954C24.8242 31.582 24.6293 32.9853 24.3582 34.9374C23.7391 39.3951 23.4295 41.624 24.1102 43.355C24.7077 44.8747 25.811 46.1419 27.2341 46.9428C28.855 47.8552 31.1053 47.8552 35.6057 47.8552H37.9112C42.4117 47.8552 44.6619 47.8552 46.2829 46.9428C47.706 46.1419 48.8093 44.8747 49.4068 43.355C50.0875 41.624 49.7779 39.3951 49.1588 34.9374C48.8643 32.8173 48.6598 31.3446 48.3554 30.2218L47.3185 31.2586C45.0016 33.5755 43.1859 35.3913 41.5787 36.6175C39.9337 37.8726 38.3826 38.61 36.5864 38.61C34.7902 38.61 33.2391 37.8726 31.594 36.6175C29.9869 35.3913 28.1711 33.5755 25.8542 31.2586L25.091 30.4954Z" fill="white"/>
<path d="M25.9603 28.3536L27.3022 29.6954C29.6892 32.0825 31.4053 33.7954 32.8856 34.9248C34.3412 36.0354 35.4429 36.4809 36.5864 36.4809C37.7299 36.4809 38.8316 36.0354 40.2872 34.9248C41.7674 33.7954 43.4836 32.0825 45.8706 29.6954L47.4174 28.1487C46.6963 27.1271 45.7168 26.3124 44.5766 25.7897C43.1682 25.144 41.4159 25.144 37.9112 25.144H35.6058C32.1011 25.144 30.3487 25.144 28.9404 25.7897C27.7249 26.3469 26.6921 27.2358 25.9603 28.3536Z" fill="white"/>
</svg>
