<svg width="28" height="28" viewBox="0 0 28 28" fill="none" xmlns="http://www.w3.org/2000/svg">
<path d="M4.6227 9.06512C4.40338 9.95824 4.24319 11.1116 4.02034 12.7161C3.51147 16.38 3.25704 18.2119 3.81649 19.6347C4.30763 20.8838 5.21447 21.9252 6.38409 22.5836C7.71639 23.3334 9.5659 23.3334 13.2649 23.3334H15.1598C18.8588 23.3334 20.7084 23.3334 22.0407 22.5836C23.2103 21.9252 24.1171 20.8838 24.6083 19.6347C25.1677 18.2119 24.9133 16.38 24.4044 12.7161C24.1624 10.9735 23.9943 9.76309 23.7441 8.84023L22.8919 9.6924C20.9876 11.5967 19.4952 13.0891 18.1742 14.097C16.8222 15.1286 15.5473 15.7347 14.0709 15.7347C12.5946 15.7347 11.3197 15.1286 9.96762 14.097C8.64666 13.0891 7.15429 11.5967 5.24998 9.6924L4.6227 9.06512Z" fill="white"/>
<path d="M5.33715 7.3047L6.44007 8.40762C8.402 10.3696 9.81253 11.7775 11.0291 12.7057C12.2256 13.6185 13.131 13.9847 14.0709 13.9847C15.0108 13.9847 15.9163 13.6185 17.1127 12.7057C18.3293 11.7775 19.7399 10.3696 21.7018 8.40762L22.9731 7.1363C22.3805 6.29663 21.5754 5.62702 20.6382 5.19739C19.4807 4.66675 18.0404 4.66675 15.1598 4.66675H13.2649C10.3844 4.66675 8.94409 4.66675 7.78656 5.19739C6.78753 5.65536 5.93864 6.38603 5.33715 7.3047Z" fill="white"/>
</svg>
