<svg width="60" height="60" viewBox="0 0 60 60" fill="none" xmlns="http://www.w3.org/2000/svg">
<circle cx="30" cy="30" r="30" fill="white"/>
<path fill-rule="evenodd" clip-rule="evenodd" d="M38.0357 21.3884C35.8259 19.1786 32.8795 18 29.7857 18C23.3036 18 18 23.3036 18 29.7857C18 31.8482 18.5893 33.9107 19.6205 35.6786L18 41.5714L24.1875 39.9509C25.9554 40.8348 27.8705 41.4241 29.7857 41.4241C36.2679 41.4241 41.5714 36.1205 41.5714 29.6384C41.5714 26.5446 40.2455 23.5982 38.0357 21.3884ZM29.7857 39.5089C28.0179 39.5089 26.25 39.067 24.7768 38.183L24.4821 38.0357L20.7991 39.067L21.8304 35.5312L21.5357 35.0893C20.5045 33.4688 20.0625 31.7009 20.0625 29.933C20.0625 24.6295 24.4821 20.2098 29.7857 20.2098C32.4375 20.2098 34.7947 21.2411 36.7098 23.0089C38.625 24.9241 39.5089 27.2813 39.5089 29.933C39.5089 35.0893 35.2366 39.5089 29.7857 39.5089ZM35.0893 32.1429C34.7946 31.9955 33.3214 31.2589 33.0268 31.2589C32.7322 31.1116 32.5848 31.1116 32.4375 31.4063C32.2902 31.7009 31.7009 32.2902 31.5536 32.5848C31.4063 32.7321 31.2589 32.7321 30.9643 32.7321C30.6696 32.5848 29.7857 32.2902 28.6072 31.2589C27.7232 30.5223 27.1339 29.4911 26.9866 29.1964C26.8393 28.9018 26.9866 28.7545 27.1339 28.6071C27.2813 28.4598 27.4286 28.3125 27.5759 28.1652C27.7232 28.0179 27.7232 27.8705 27.8706 27.7232C28.0179 27.5759 27.8706 27.4286 27.8706 27.2812C27.8706 27.1339 27.2813 25.6607 26.9866 25.0714C26.8393 24.6295 26.5447 24.6295 26.3973 24.6295C26.25 24.6295 26.1027 24.6295 25.808 24.6295C25.6607 24.6295 25.3661 24.6295 25.0714 24.9241C24.7768 25.2188 24.0402 25.9554 24.0402 27.4286C24.0402 28.9018 25.0714 30.2277 25.2187 30.5223C25.3661 30.6696 27.2812 33.7634 30.2277 34.942C32.7321 35.9732 33.1741 35.6786 33.7634 35.6786C34.3527 35.6786 35.5312 34.942 35.6786 34.3527C35.9732 33.6161 35.9732 33.0268 35.8259 33.0268C35.6786 32.2902 35.3839 32.2902 35.0893 32.1429Z" fill="#FF62B4"/>
</svg>
