<svg width="60" height="60" viewBox="0 0 60 60" fill="none" xmlns="http://www.w3.org/2000/svg">
<circle cx="30" cy="30" r="30" fill="white"/>
<path d="M39.0392 21.1589C39.0392 21.1589 41.1668 20.3798 40.9895 22.272C40.9304 23.0511 40.3985 25.7781 39.9848 28.7278L38.5663 37.4653C38.5663 37.4653 38.4482 38.7453 37.3843 38.9679C36.3204 39.1905 34.7247 38.1888 34.4292 37.9662C34.1928 37.7992 29.9966 35.2948 28.519 34.0705C28.1053 33.7365 27.6325 33.0687 28.5781 32.2895L34.7838 26.7243C35.493 26.0564 36.2023 24.4981 33.2471 26.3903L24.9729 31.6774C24.9729 31.6774 24.0273 32.2339 22.2542 31.733L18.4126 30.62C18.4126 30.62 16.9941 29.7852 19.4173 28.9503C25.3275 26.3346 32.5971 23.6633 39.0392 21.1589Z" fill="#FF62B4"/>
</svg>
