<svg width="73" height="73" viewBox="0 0 73 73" fill="none" xmlns="http://www.w3.org/2000/svg">
<circle cx="36.5" cy="36.5" r="36.5" fill="#FF62B4"/>
<path fill-rule="evenodd" clip-rule="evenodd" d="M46.2772 26.0226C43.5886 23.334 40.0037 21.9 36.2397 21.9C28.3531 21.9 21.9004 28.3527 21.9004 36.2393C21.9004 38.7487 22.6174 41.2581 23.8721 43.409L21.9004 50.5786L29.4285 48.6069C31.5794 49.6824 33.9095 50.3994 36.2397 50.3994C44.1263 50.3994 50.579 43.9467 50.579 36.0601C50.579 32.296 48.9658 28.7112 46.2772 26.0226ZM36.2397 48.0692C34.0888 48.0692 31.9379 47.5315 30.1455 46.4561L29.787 46.2768L25.306 47.5315L26.5607 43.2297L26.2022 42.692C24.9475 40.7203 24.4098 38.5694 24.4098 36.4186C24.4098 29.9659 29.787 24.5886 36.2397 24.5886C39.466 24.5886 42.3339 25.8433 44.664 27.9942C46.9942 30.3244 48.0696 33.1922 48.0696 36.4186C48.0696 42.692 42.8716 48.0692 36.2397 48.0692ZM42.6924 39.1072C42.3339 38.9279 40.5415 38.0317 40.183 38.0317C39.8245 37.8525 39.6452 37.8525 39.466 38.211C39.2868 38.5694 38.5698 39.2864 38.3906 39.6449C38.2113 39.8241 38.0321 39.8241 37.6736 39.8241C37.3151 39.6449 36.2397 39.2864 34.8058 38.0317C33.7303 37.1355 33.0133 35.8808 32.8341 35.5223C32.6549 35.1639 32.8341 34.9846 33.0134 34.8054C33.1926 34.6261 33.3718 34.4469 33.5511 34.2677C33.7303 34.0884 33.7303 33.9092 33.9096 33.7299C34.0888 33.5507 33.9096 33.3715 33.9096 33.1922C33.9096 33.013 33.1926 31.2206 32.8341 30.5036C32.6549 29.9659 32.2964 29.9659 32.1172 29.9659C31.9379 29.9659 31.7586 29.9659 31.4001 29.9659C31.2209 29.9659 30.8624 29.9659 30.5039 30.3244C30.1455 30.6828 29.2493 31.579 29.2493 33.3715C29.2493 35.1639 30.504 36.777 30.6832 37.1355C30.8624 37.3148 33.1926 41.0788 36.7774 42.5127C39.8245 43.7674 40.3622 43.409 41.0792 43.409C41.7962 43.409 43.2301 42.5128 43.4093 41.7958C43.7678 40.8996 43.7678 40.1826 43.5886 40.1826C43.4093 39.2864 43.0508 39.2864 42.6924 39.1072Z" fill="white"/>
</svg>
