<svg width="73" height="73" viewBox="0 0 73 73" fill="none" xmlns="http://www.w3.org/2000/svg">
<circle cx="36.5" cy="36.5" r="36.5" fill="#FF62B4"/>
<path d="M47.498 25.7433C47.498 25.7433 50.0867 24.7954 49.8709 27.0976C49.7991 28.0455 49.1519 31.3634 48.6485 34.9521L46.9228 45.5828C46.9228 45.5828 46.779 47.1401 45.4846 47.411C44.1903 47.6818 42.2488 46.463 41.8892 46.1922C41.6016 45.9891 36.4962 42.942 34.6985 41.4524C34.1951 41.0461 33.6199 40.2336 34.7704 39.2856L42.3207 32.5145C43.1836 31.7019 44.0465 29.806 40.4511 32.1082L30.3841 38.5408C30.3841 38.5408 29.2336 39.2179 27.0764 38.6085L22.4024 37.2543C22.4024 37.2543 20.6766 36.2386 23.6248 35.2229C30.8156 32.0405 39.6602 28.7903 47.498 25.7433Z" fill="white"/>
</svg>
