<svg width="73" height="73" viewBox="0 0 73 73" fill="none" xmlns="http://www.w3.org/2000/svg">
<circle cx="36.5" cy="36.5" r="36.5" fill="#FF62B4"/>
<path d="M25.0915 30.4955C24.8247 31.5822 24.6298 32.9854 24.3587 34.9376C23.7395 39.3952 23.43 41.6241 24.1106 43.3552C24.7082 44.8749 25.8115 46.142 27.2346 46.9429C28.8555 47.8553 31.1058 47.8553 35.6062 47.8553H37.9117C42.4122 47.8553 44.6624 47.8553 46.2834 46.9429C47.7064 46.142 48.8098 44.8749 49.4073 43.3552C50.088 41.6241 49.7784 39.3952 49.1593 34.9376C48.8648 32.8174 48.6603 31.3447 48.3558 30.2219L47.319 31.2587C45.0021 33.5757 43.1864 35.3914 41.5792 36.6176C39.9342 37.8727 38.3831 38.6101 36.5869 38.6101C34.7906 38.6101 33.2396 37.8727 31.5945 36.6176C29.9874 35.3914 28.1716 33.5756 25.8547 31.2587L25.0915 30.4955Z" fill="white"/>
<path d="M25.9608 28.3537L27.3027 29.6956C29.6897 32.0826 31.4058 33.7955 32.886 34.9249C34.3417 36.0355 35.4434 36.481 36.5869 36.481C37.7304 36.481 38.8321 36.0355 40.2877 34.9249C41.7679 33.7955 43.4841 32.0826 45.8711 29.6956L47.4179 28.1488C46.6968 27.1272 45.7173 26.3125 44.5771 25.7898C43.1687 25.1442 41.4164 25.1442 37.9117 25.1442H35.6063C32.1016 25.1442 30.3492 25.1442 28.9409 25.7898C27.7254 26.347 26.6926 27.236 25.9608 28.3537Z" fill="white"/>
</svg>
