<svg width="80" height="80" viewBox="0 0 80 80" fill="none" xmlns="http://www.w3.org/2000/svg">
<circle cx="40" cy="40" r="40" fill="white"/>
<path d="M27.4969 33.4199C27.2045 34.6107 26.9909 36.1486 26.6938 38.2879C26.0153 43.173 25.676 45.6156 26.422 47.5127C27.0768 49.1781 28.286 50.5668 29.8455 51.4445C31.6219 52.4443 34.0879 52.4443 39.0199 52.4443H41.5464C46.4784 52.4443 48.9445 52.4443 50.7209 51.4445C52.2804 50.5668 53.4895 49.1781 54.1444 47.5127C54.8903 45.6156 54.5511 43.173 53.8726 38.2879C53.5499 35.9645 53.3257 34.3505 52.9921 33.1201L51.8558 34.2563C49.3168 36.7954 47.3269 38.7852 45.5656 40.1291C43.7629 41.5045 42.0631 42.3127 40.0946 42.3127C38.1261 42.3127 36.4263 41.5045 34.6235 40.1291C32.8622 38.7852 30.8724 36.7954 28.3333 34.2563L27.4969 33.4199Z" fill="#FF62B4"/>
<path d="M28.4495 31.0727L29.9201 32.5432C32.536 35.1592 34.4167 37.0364 36.0389 38.274C37.6341 39.4911 38.8414 39.9793 40.0946 39.9793C41.3478 39.9793 42.5551 39.4911 44.1503 38.274C45.7724 37.0364 47.6531 35.1592 50.2691 32.5432L51.9641 30.8482C51.1739 29.7286 50.1005 28.8358 48.8509 28.2629C47.3076 27.5554 45.3872 27.5554 41.5464 27.5554H39.0199C35.1792 27.5554 33.2588 27.5554 31.7154 28.2629C30.3834 28.8736 29.2515 29.8478 28.4495 31.0727Z" fill="#FF62B4"/>
</svg>
