<svg width="80" height="80" viewBox="0 0 80 80" fill="none" xmlns="http://www.w3.org/2000/svg">
<circle cx="40" cy="40" r="40" fill="white"/>
<path d="M52.0522 28.2119C52.0522 28.2119 54.8891 27.173 54.6527 29.696C54.5739 30.7348 53.8647 34.3708 53.313 38.3037L51.4218 49.9537C51.4218 49.9537 51.2642 51.6604 49.8457 51.9573C48.4273 52.254 46.2996 50.9184 45.9056 50.6216C45.5904 50.399 39.9955 47.0598 38.0253 45.4273C37.4737 44.982 36.8433 44.0916 38.1041 43.0527L46.3784 35.6323C47.3241 34.7419 48.2697 32.6642 44.3295 35.1871L33.2972 42.2365C33.2972 42.2365 32.0364 42.9785 29.6723 42.3107L24.5501 40.8266C24.5501 40.8266 22.6589 39.7136 25.8898 38.6004C33.77 35.1128 43.4628 31.551 52.0522 28.2119Z" fill="#FF62B4"/>
</svg>
